<?xml version="1.0" encoding="UTF-8"?>
<!DOCTYPE svg PUBLIC "-//W3C//DTD SVG 1.1//EN" "http://www.w3.org/Graphics/SVG/1.1/DTD/svg11.dtd">
<svg xmlns="http://www.w3.org/2000/svg" version="1.1" width="130px" height="148px" style="shape-rendering:geometricPrecision; text-rendering:geometricPrecision; image-rendering:optimizeQuality; fill-rule:evenodd; clip-rule:evenodd" xmlns:xlink="http://www.w3.org/1999/xlink">
<g><path style="opacity:1" fill="#f5f4f4" d="M -0.5,0.5 C -0.5,0.166667 -0.5,-0.166667 -0.5,-0.5C 42.8333,-0.5 86.1667,-0.5 129.5,-0.5C 129.5,13.5 129.5,27.5 129.5,41.5C 129.167,41.5 128.833,41.5 128.5,41.5C 85.5,41.5 42.5,41.5 -0.5,41.5C -0.5,40.1667 -0.5,38.8333 -0.5,37.5C -0.166667,37.5 0.166667,37.5 0.5,37.5C 2.83333,37.5 5.16667,37.5 7.5,37.5C 8.16667,32.1667 8.83333,26.8333 9.5,21.5C 10.956,26.5346 12.6227,31.5346 14.5,36.5C 17.0865,37.48 19.7531,37.8134 22.5,37.5C 23.4952,25.3446 23.8286,13.0113 23.5,0.5C 20.6146,0.1936 17.9479,0.526933 15.5,1.5C 15.5,5.5 15.5,9.5 15.5,13.5C 15.7845,15.4147 15.4511,17.0813 14.5,18.5C 13.0155,12.7197 11.3489,7.05308 9.5,1.5C 6.37518,0.520558 3.04185,0.187225 -0.5,0.5 Z"/></g>
<g><path style="opacity:1" fill="#767475" d="M 59.5,1.5 C 56.6122,0.989827 54.2789,1.65649 52.5,3.5C 51.596,2.79105 51.2627,1.79105 51.5,0.5C 54.3854,0.1936 57.0521,0.526933 59.5,1.5 Z"/></g>
<g><path style="opacity:1" fill="#7a7879" d="M 67.5,1.5 C 70.3553,0.196801 73.3553,0.196801 76.5,1.5C 76.3764,2.10667 76.0431,2.44001 75.5,2.5C 73.0521,1.52693 70.3854,1.1936 67.5,1.5 Z"/></g>
<g><path style="opacity:1" fill="#252026" d="M 127.5,7.5 C 127.5,8.83333 127.5,10.1667 127.5,11.5C 125.167,11.5 122.833,11.5 120.5,11.5C 119.71,10.3915 119.21,9.05814 119,7.5C 116.2,5.88212 114.7,6.71545 114.5,10C 114.585,11.1074 114.919,12.1074 115.5,13C 119.956,14.9794 123.79,17.8128 127,21.5C 129.29,35.8781 123.456,41.0447 109.5,37C 106.034,33.9597 104.7,30.1264 105.5,25.5C 108.167,25.5 110.833,25.5 113.5,25.5C 112.65,30.4786 114.483,32.4786 119,31.5C 119.667,29.5 119.667,27.5 119,25.5C 115.492,23.4129 112.158,21.0796 109,18.5C 103.051,5.20384 107.218,-0.629497 121.5,1C 124.409,2.40552 126.409,4.57219 127.5,7.5 Z"/></g>
<g><path style="opacity:1" fill="#a9a8a8" d="M 102.5,29.5 C 102.5,20.1667 102.5,10.8333 102.5,1.5C 99.8333,1.5 97.1667,1.5 94.5,1.5C 94.8271,11.3478 94.4938,21.0144 93.5,30.5C 93.5,20.5 93.5,10.5 93.5,0.5C 96.8333,0.5 100.167,0.5 103.5,0.5C 103.827,10.3478 103.494,20.0144 102.5,29.5 Z"/></g>
<g><path style="opacity:1" fill="#b6b4b6" d="M -0.5,0.5 C 3.04185,0.187225 6.37518,0.520558 9.5,1.5C 6.5,1.5 3.5,1.5 0.5,1.5C 0.5,13.5 0.5,25.5 0.5,37.5C 0.166667,37.5 -0.166667,37.5 -0.5,37.5C -0.5,25.1667 -0.5,12.8333 -0.5,0.5 Z"/></g>
<g><path style="opacity:1" fill="#211c22" d="M 9.5,1.5 C 11.3489,7.05308 13.0155,12.7197 14.5,18.5C 14.4614,19.7562 14.9614,20.7562 16,21.5C 16.8007,18.633 16.6341,15.9664 15.5,13.5C 15.5,9.5 15.5,5.5 15.5,1.5C 17.8333,1.5 20.1667,1.5 22.5,1.5C 22.5,13.5 22.5,25.5 22.5,37.5C 19.7531,37.8134 17.0865,37.48 14.5,36.5C 12.6227,31.5346 10.956,26.5346 9.5,21.5C 9.29142,20.0783 8.79142,18.745 8,17.5C 7.50042,24.1583 7.33375,30.825 7.5,37.5C 5.16667,37.5 2.83333,37.5 0.5,37.5C 0.5,25.5 0.5,13.5 0.5,1.5C 3.5,1.5 6.5,1.5 9.5,1.5 Z"/></g>
<g><path style="opacity:1" fill="#4f4d50" d="M 15.5,1.5 C 17.9479,0.526933 20.6146,0.1936 23.5,0.5C 23.8286,13.0113 23.4952,25.3446 22.5,37.5C 22.5,25.5 22.5,13.5 22.5,1.5C 20.1667,1.5 17.8333,1.5 15.5,1.5 Z"/></g>
<g><path style="opacity:1" fill="#615f61" d="M 47.5,1.5 C 41.1667,1.5 34.8333,1.5 28.5,1.5C 28.5,13.5 28.5,25.5 28.5,37.5C 28.1667,37.5 27.8333,37.5 27.5,37.5C 27.5,25.1667 27.5,12.8333 27.5,0.5C 34.3543,0.17596 41.021,0.509293 47.5,1.5 Z"/></g>
<g><path style="opacity:1" fill="#231e24" d="M 47.5,1.5 C 47.5,3.83333 47.5,6.16667 47.5,8.5C 43.8333,8.5 40.1667,8.5 36.5,8.5C 36.5,10.8333 36.5,13.1667 36.5,15.5C 40.1667,15.5 43.8333,15.5 47.5,15.5C 47.5,17.8333 47.5,20.1667 47.5,22.5C 43.8333,22.5 40.1667,22.5 36.5,22.5C 36.5,25.1667 36.5,27.8333 36.5,30.5C 40.1667,30.5 43.8333,30.5 47.5,30.5C 47.5,32.8333 47.5,35.1667 47.5,37.5C 41.1667,37.5 34.8333,37.5 28.5,37.5C 28.5,25.5 28.5,13.5 28.5,1.5C 34.8333,1.5 41.1667,1.5 47.5,1.5 Z"/></g>
<g><path style="opacity:1" fill="#252026" d="M 59.5,1.5 C 61.2679,4.60573 62.7679,7.93907 64,11.5C 65.077,8.1007 66.2437,4.76736 67.5,1.5C 70.3854,1.1936 73.0521,1.52693 75.5,2.5C 73.2078,7.87511 71.2078,13.3751 69.5,19C 71.4107,24.9902 73.7441,30.8236 76.5,36.5C 73.8938,37.6517 71.2272,37.8184 68.5,37C 67.1446,33.7882 65.6446,30.6215 64,27.5C 61.9728,30.2211 60.4728,33.2211 59.5,36.5C 56.9135,37.48 54.2469,37.8134 51.5,37.5C 53.9252,31.3942 56.2585,25.2276 58.5,19C 56.9077,13.6532 54.9077,8.48649 52.5,3.5C 54.2789,1.65649 56.6122,0.989827 59.5,1.5 Z"/></g>
<g><path style="opacity:1" fill="#211c22" d="M 88.5,30.5 C 90.1667,31.8333 91.8333,31.8333 93.5,30.5C 94.4938,21.0144 94.8271,11.3478 94.5,1.5C 97.1667,1.5 99.8333,1.5 102.5,1.5C 102.5,10.8333 102.5,20.1667 102.5,29.5C 101.415,36.2401 97.4147,39.2401 90.5,38.5C 85.0152,39.1005 81.6819,36.7672 80.5,31.5C 80.5,21.5 80.5,11.5 80.5,1.5C 82.8333,1.5 85.1667,1.5 87.5,1.5C 87.1729,11.3478 87.5062,21.0144 88.5,30.5 Z"/></g>
<g><path style="opacity:1" fill="#5f5c5f" d="M 88.5,30.5 C 87.5062,21.0144 87.1729,11.3478 87.5,1.5C 85.1667,1.5 82.8333,1.5 80.5,1.5C 80.5,11.5 80.5,21.5 80.5,31.5C 79.5058,21.3468 79.1724,11.0135 79.5,0.5C 82.5,0.5 85.5,0.5 88.5,0.5C 88.5,10.5 88.5,20.5 88.5,30.5 Z"/></g>
<g><path style="opacity:1" fill="#9a989a" d="M 127.5,7.5 C 128.451,8.91866 128.784,10.5853 128.5,12.5C 125.615,12.8064 122.948,12.4731 120.5,11.5C 122.833,11.5 125.167,11.5 127.5,11.5C 127.5,10.1667 127.5,8.83333 127.5,7.5 Z"/></g>
<g><path style="opacity:1" fill="#6d696e" d="M 15.5,13.5 C 16.6341,15.9664 16.8007,18.633 16,21.5C 14.9614,20.7562 14.4614,19.7562 14.5,18.5C 15.4511,17.0813 15.7845,15.4147 15.5,13.5 Z"/></g>
<g><path style="opacity:1" fill="#716e71" d="M 9.5,21.5 C 8.83333,26.8333 8.16667,32.1667 7.5,37.5C 7.33375,30.825 7.50042,24.1583 8,17.5C 8.79142,18.745 9.29142,20.0783 9.5,21.5 Z"/></g>
<g><path style="opacity:1" fill="#aaa8aa" d="M 47.5,30.5 C 48.4731,32.9479 48.8064,35.6146 48.5,38.5C 41.3134,38.8245 34.3134,38.4912 27.5,37.5C 27.8333,37.5 28.1667,37.5 28.5,37.5C 34.8333,37.5 41.1667,37.5 47.5,37.5C 47.5,35.1667 47.5,32.8333 47.5,30.5 Z"/></g>
<g><path style="opacity:1" fill="#ef9a57" d="M -0.5,41.5 C 42.5,41.5 85.5,41.5 128.5,41.5C 128.5,41.8333 128.5,42.1667 128.5,42.5C 128.167,42.5 127.833,42.5 127.5,42.5C 85.33,42.168 43.33,42.5013 1.5,43.5C 0.501654,77.6626 0.16832,111.996 0.5,146.5C 0.166667,146.5 -0.166667,146.5 -0.5,146.5C -0.5,111.5 -0.5,76.5 -0.5,41.5 Z"/></g>
<g><path style="opacity:1" fill="#623114" d="M 1.5,43.5 C 43.33,42.5013 85.33,42.168 127.5,42.5C 127.5,76.8333 127.5,111.167 127.5,145.5C 85.33,145.832 43.33,145.499 1.5,144.5C 43.1667,144.5 84.8333,144.5 126.5,144.5C 126.5,110.833 126.5,77.1667 126.5,43.5C 84.8333,43.5 43.1667,43.5 1.5,43.5 Z"/></g>
<g><path style="opacity:1" fill="#d77f3c" d="M 127.5,42.5 C 127.833,42.5 128.167,42.5 128.5,42.5C 128.5,77.1667 128.5,111.833 128.5,146.5C 85.8333,146.5 43.1667,146.5 0.5,146.5C 0.16832,111.996 0.501654,77.6626 1.5,43.5C 1.5,77.1667 1.5,110.833 1.5,144.5C 43.33,145.499 85.33,145.832 127.5,145.5C 127.5,111.167 127.5,76.8333 127.5,42.5 Z"/></g>
<g><path style="opacity:1" fill="#070602" d="M 1.5,43.5 C 43.1667,43.5 84.8333,43.5 126.5,43.5C 126.5,77.1667 126.5,110.833 126.5,144.5C 84.8333,144.5 43.1667,144.5 1.5,144.5C 1.5,110.833 1.5,77.1667 1.5,43.5 Z"/></g>
<g><path style="opacity:1" fill="#645648" d="M 70.5,124.5 C 71.3764,124.369 72.0431,124.702 72.5,125.5C 71.9649,127.661 71.1316,129.661 70,131.5C 68.0998,128.815 68.2664,126.481 70.5,124.5 Z"/></g>
<g><path style="opacity:1" fill="#665849" d="M 76.5,128.5 C 77.6801,126.986 78.6801,125.319 79.5,123.5C 81.6815,124.537 81.6815,125.87 79.5,127.5C 79.6667,128.167 79.8333,128.833 80,129.5C 82.2659,125.666 82.9326,125.999 82,130.5C 83.2515,128.999 84.2515,127.332 85,125.5C 87.8032,127.044 87.9699,129.044 85.5,131.5C 83.0134,131.218 80.3467,131.218 77.5,131.5C 77.7373,130.209 77.404,129.209 76.5,128.5 Z"/></g>
<g><path style="opacity:1" fill="#655649" d="M 42.5,123.5 C 45.1125,124.095 45.1125,124.929 42.5,126C 43.9494,127.117 45.6161,127.784 47.5,128C 45.9716,129.361 44.3049,130.528 42.5,131.5C 40.2263,131.289 37.893,130.955 35.5,130.5C 37.7961,125.298 38.6294,125.298 38,130.5C 39.5106,128.138 41.0106,125.805 42.5,123.5 Z"/></g>
<g><path style="opacity:1" fill="#54483d" d="M 31.5,124.5 C 33.1992,124.34 34.8659,124.506 36.5,125C 34.2925,126.792 32.9592,129.126 32.5,132C 27.4378,133.176 24.7711,131.509 24.5,127C 26.0268,125.368 27.6934,125.201 29.5,126.5C 28.5721,127.768 28.4054,129.101 29,130.5C 30.122,128.593 30.9553,126.593 31.5,124.5 Z"/></g>
<g><path style="opacity:1" fill="#6b5c4e" d="M 76.5,128.5 C 74.5861,132.589 73.2528,132.423 72.5,128C 73.3333,127.167 74.1667,126.333 75,125.5C 75.2321,126.737 75.7321,127.737 76.5,128.5 Z"/></g>
<g><path style="opacity:1" fill="#4b4138" d="M 59.5,123.5 C 60.404,124.209 60.7373,125.209 60.5,126.5C 67.6013,126.272 68.268,128.772 62.5,134C 61.5,134.667 60.5,134.667 59.5,134C 62.6439,133.081 63.6439,131.248 62.5,128.5C 61.6143,129.325 61.281,130.325 61.5,131.5C 59.2841,131.725 57.6174,130.892 56.5,129C 57.6394,127.22 58.6394,125.386 59.5,123.5 Z"/></g>
<g><path style="opacity:1" fill="#4d4339" d="M 51.5,124.5 C 52.9307,126.268 54.5973,126.935 56.5,126.5C 55.9851,128.225 55.3184,129.892 54.5,131.5C 53.8076,130.975 53.3076,130.308 53,129.5C 50.562,132.079 49.062,131.413 48.5,127.5C 49.3398,126.265 50.3398,125.265 51.5,124.5 Z"/></g>
<g><path style="opacity:1" fill="#4f453a" d="M 96.5,123.5 C 99.1125,124.095 99.1125,124.929 96.5,126C 98.7271,126.121 100.56,126.954 102,128.5C 102.423,127.044 103.256,126.544 104.5,127C 103.733,129.053 102.4,130.553 100.5,131.5C 98.5971,130.647 96.5971,130.647 94.5,131.5C 94.4042,127.689 93.7376,127.689 92.5,131.5C 92.1667,131.167 91.8333,130.833 91.5,130.5C 92.3094,128.929 92.6427,127.262 92.5,125.5C 94.3797,125.771 95.713,125.104 96.5,123.5 Z"/></g>
<g><path style="opacity:1" fill="#8f4b22" d="M 50.5,112.5 C 53.1667,112.5 55.8333,112.5 58.5,112.5C 58.5,113.5 58.5,114.5 58.5,115.5C 57.8333,115.5 57.1667,115.5 56.5,115.5C 54.8439,113.94 52.8439,112.94 50.5,112.5 Z"/></g>
<g><path style="opacity:1" fill="#e87a25" d="M 79.5,100.5 C 81.3356,104.171 83.1689,107.838 85,111.5C 85.4986,107.848 85.6653,104.182 85.5,100.5C 87.4364,104.715 88.1031,109.381 87.5,114.5C 85.8333,114.5 84.1667,114.5 82.5,114.5C 81.6916,111.55 80.3582,108.883 78.5,106.5C 78.5386,105.244 78.0386,104.244 77,103.5C 76.5012,107.486 76.3345,111.486 76.5,115.5C 75.8333,115.5 75.1667,115.5 74.5,115.5C 74.5,110.5 74.5,105.5 74.5,100.5C 76.1667,100.5 77.8333,100.5 79.5,100.5 Z"/></g>
<g><path style="opacity:1" fill="#512912" d="M 78.5,106.5 C 77.8333,109.5 77.1667,112.5 76.5,115.5C 76.3345,111.486 76.5012,107.486 77,103.5C 78.0386,104.244 78.5386,105.244 78.5,106.5 Z"/></g>
<g><path style="opacity:1" fill="#dc762a" d="M 7.5,99.5 C 10.1873,99.3359 12.854,99.5026 15.5,100C 17.1066,101.049 17.7733,102.549 17.5,104.5C 14.6644,103.224 11.6644,102.558 8.5,102.5C 8.33003,103.822 8.66337,104.989 9.5,106C 15.9637,104.807 18.7971,107.307 18,113.5C 14.8169,115.523 11.3169,116.023 7.5,115C 5.96317,113.89 5.2965,112.39 5.5,110.5C 7.66381,111.478 9.83048,112.478 12,113.5C 15.2845,113.3 16.1179,111.8 14.5,109C 6.28568,109.657 3.95235,106.49 7.5,99.5 Z"/></g>
<g><path style="opacity:1" fill="#e87a27" d="M 96.5,109.5 C 95.791,108.596 94.791,108.263 93.5,108.5C 93.5,110.833 93.5,113.167 93.5,115.5C 92.8333,115.5 92.1667,115.5 91.5,115.5C 91.1725,110.456 91.5059,105.456 92.5,100.5C 93.4656,102.396 93.7989,104.396 93.5,106.5C 94.791,106.737 95.791,106.404 96.5,105.5C 97.631,101.648 99.9643,99.9817 103.5,100.5C 101.445,102.555 99.7787,104.888 98.5,107.5C 100.555,109.555 102.221,111.888 103.5,114.5C 102.635,115.583 101.635,115.749 100.5,115C 99.035,113.226 97.7017,111.392 96.5,109.5 Z"/></g>
<g><path style="opacity:1" fill="#86471d" d="M 96.5,109.5 C 94.9397,111.156 93.9397,113.156 93.5,115.5C 93.5,113.167 93.5,110.833 93.5,108.5C 94.791,108.263 95.791,108.596 96.5,109.5 Z"/></g>
<g><path style="opacity:1" fill="#e07a2f" d="M 35.5,99.5 C 36.5,99.5 37.5,99.5 38.5,99.5C 38.5,104.833 38.5,110.167 38.5,115.5C 37.5,115.5 36.5,115.5 35.5,115.5C 35.5,110.167 35.5,104.833 35.5,99.5 Z"/></g>
<g><path style="opacity:1" fill="#ba6324" d="M 32.5,101.5 C 33.9791,104.143 33.6458,106.643 31.5,109C 33.229,110.789 33.8957,112.956 33.5,115.5C 32.1667,115.5 30.8333,115.5 29.5,115.5C 29.5,113.833 29.5,112.167 29.5,110.5C 27.5,110.5 25.5,110.5 23.5,110.5C 25.2922,109.691 27.2922,109.191 29.5,109C 27.2922,108.809 25.2922,108.309 23.5,107.5C 25.5,107.5 27.5,107.5 29.5,107.5C 29.5,105.833 29.5,104.167 29.5,102.5C 30.9663,103.347 31.7996,104.68 32,106.5C 32.4935,104.866 32.6602,103.199 32.5,101.5 Z"/></g>
<g><path style="opacity:1" fill="#120603" d="M 29.5,102.5 C 29.5,104.167 29.5,105.833 29.5,107.5C 27.5,107.5 25.5,107.5 23.5,107.5C 23.5,105.833 23.5,104.167 23.5,102.5C 25.5,102.5 27.5,102.5 29.5,102.5 Z"/></g>
<g><path style="opacity:1" fill="#98511e" d="M 79.5,100.5 C 77.8333,100.5 76.1667,100.5 74.5,100.5C 74.5,105.5 74.5,110.5 74.5,115.5C 73.5119,110.36 73.1786,105.026 73.5,99.5C 75.7354,99.2053 77.7354,99.5386 79.5,100.5 Z"/></g>
<g><path style="opacity:1" fill="#dc7427" d="M 109.5,99.5 C 111.467,99.2606 113.301,99.5939 115,100.5C 116.81,105.429 118.31,110.429 119.5,115.5C 117.641,115.539 116.308,114.706 115.5,113C 113.19,112.503 110.857,112.337 108.5,112.5C 108.5,113.5 108.5,114.5 108.5,115.5C 107.5,115.5 106.5,115.5 105.5,115.5C 106.361,110.004 107.694,104.671 109.5,99.5 Z"/></g>
<g><path style="opacity:1" fill="#261409" d="M 111.5,103.5 C 113.834,105.176 114.834,107.509 114.5,110.5C 113.167,110.5 111.833,110.5 110.5,110.5C 110.448,108.097 110.781,105.764 111.5,103.5 Z"/></g>
<g><path style="opacity:1" fill="#b56127" d="M 85.5,100.5 C 86.209,99.596 87.209,99.2627 88.5,99.5C 88.5,104.833 88.5,110.167 88.5,115.5C 86.2646,115.795 84.2646,115.461 82.5,114.5C 84.1667,114.5 85.8333,114.5 87.5,114.5C 88.1031,109.381 87.4364,104.715 85.5,100.5 Z"/></g>
<g><path style="opacity:1" fill="#f17e26" d="M 50.5,112.5 C 52.8439,112.94 54.8439,113.94 56.5,115.5C 53.5,115.5 50.5,115.5 47.5,115.5C 47.1725,110.456 47.5059,105.456 48.5,100.5C 49.167,104.647 49.8337,108.647 50.5,112.5 Z"/></g>
<g><path style="opacity:1" fill="#703c19" d="M 50.5,112.5 C 49.8337,108.647 49.167,104.647 48.5,100.5C 47.5059,105.456 47.1725,110.456 47.5,115.5C 46.5119,110.36 46.1786,105.026 46.5,99.5C 47.8333,99.5 49.1667,99.5 50.5,99.5C 50.5,103.833 50.5,108.167 50.5,112.5 Z"/></g>
<g><path style="opacity:1" fill="#723c1a" d="M 96.5,105.5 C 95.791,106.404 94.791,106.737 93.5,106.5C 93.7989,104.396 93.4656,102.396 92.5,100.5C 91.5059,105.456 91.1725,110.456 91.5,115.5C 90.5119,110.36 90.1786,105.026 90.5,99.5C 91.8333,99.5 93.1667,99.5 94.5,99.5C 94.0254,102.082 94.6921,104.082 96.5,105.5 Z"/></g>
<g><path style="opacity:1" fill="#d77227" d="M 58.5,115.5 C 58.5,114.5 58.5,113.5 58.5,112.5C 59.229,108.313 60.5623,104.313 62.5,100.5C 64.1667,99.1667 65.8333,99.1667 67.5,100.5C 69.1667,105.167 70.8333,109.833 72.5,114.5C 71.3112,115.429 69.9778,115.762 68.5,115.5C 68.5,114.5 68.5,113.5 68.5,112.5C 66.076,112.192 63.7427,112.526 61.5,113.5C 60.9953,114.919 59.9953,115.585 58.5,115.5 Z"/></g>
<g><path style="opacity:1" fill="#4c2410" d="M 63.5,107.5 C 64.5,110.167 65.5,110.167 66.5,107.5C 67.404,108.209 67.7373,109.209 67.5,110.5C 65.8333,110.5 64.1667,110.5 62.5,110.5C 62.2627,109.209 62.596,108.209 63.5,107.5 Z"/></g>
<g><path style="opacity:1" fill="#130803" d="M 66.5,107.5 C 65.5,110.167 64.5,110.167 63.5,107.5C 64.5,102.167 65.5,102.167 66.5,107.5 Z"/></g>
<g><path style="opacity:1" fill="#dd7528" d="M 32.5,101.5 C 32.6602,103.199 32.4935,104.866 32,106.5C 31.7996,104.68 30.9663,103.347 29.5,102.5C 27.5,102.5 25.5,102.5 23.5,102.5C 23.5,104.167 23.5,105.833 23.5,107.5C 25.2922,108.309 27.2922,108.809 29.5,109C 27.2922,109.191 25.2922,109.691 23.5,110.5C 23.5,112.167 23.5,113.833 23.5,115.5C 22.5,115.5 21.5,115.5 20.5,115.5C 20.5,110.167 20.5,104.833 20.5,99.5C 23.8499,99.335 27.1832,99.5017 30.5,100C 31.4158,100.278 32.0825,100.778 32.5,101.5 Z"/></g>
<g><path style="opacity:1" fill="#7e6a59" d="M 107.5,94.5 C 101.167,93.8333 94.8333,93.1667 88.5,92.5C 98.864,92.5048 109.197,92.3381 119.5,92C 115.586,93.2827 111.586,94.1161 107.5,94.5 Z"/></g>
<g><path style="opacity:1" fill="#88705b" d="M 7.5,86.5 C 7.19,89.7131 7.52333,92.7131 8.5,95.5C 8.44001,96.0431 8.10667,96.3764 7.5,96.5C 6.19438,93.0202 6.19438,89.6868 7.5,86.5 Z"/></g>
<g><path style="opacity:1" fill="#dfb693" d="M 33.5,85.5 C 51.872,87.4403 70.2053,89.7736 88.5,92.5C 94.8333,93.1667 101.167,93.8333 107.5,94.5C 100.684,95.0282 93.8507,95.3616 87,95.5C 70.1599,94.5295 53.3266,93.5295 36.5,92.5C 26.9813,92.0522 17.6479,93.0522 8.5,95.5C 7.52333,92.7131 7.19,89.7131 7.5,86.5C 7.83333,86.5 8.16667,86.5 8.5,86.5C 16.8156,85.8148 25.149,85.4815 33.5,85.5 Z"/></g>
<g><path style="opacity:1" fill="#9b816a" d="M 33.5,85.5 C 25.149,85.4815 16.8156,85.8148 8.5,86.5C 13.599,85.0959 18.9323,84.4292 24.5,84.5C 27.6862,84.502 30.6862,84.8353 33.5,85.5 Z"/></g>
<g><path style="opacity:1" fill="#5b2f14" d="M 85.5,79.5 C 86.4345,80.5676 86.7678,81.901 86.5,83.5C 83.9407,83.1984 81.6074,83.5318 79.5,84.5C 78.9569,84.44 78.6236,84.1067 78.5,83.5C 80.7427,82.5258 83.076,82.1924 85.5,82.5C 85.5,81.5 85.5,80.5 85.5,79.5 Z"/></g>
<g><path style="opacity:1" fill="#653516" d="M 15.5,63.5 C 15.5,66.1667 15.5,68.8333 15.5,71.5C 19.5,71.5 23.5,71.5 27.5,71.5C 27.7373,72.791 27.404,73.791 26.5,74.5C 22.9707,72.5772 18.9707,71.9106 14.5,72.5C 14.19,69.2869 14.5233,66.2869 15.5,63.5 Z"/></g>
<g><path style="opacity:1" fill="#572d18" d="M 100.5,56.5 C 101.919,55.5489 103.585,55.2155 105.5,55.5C 105.205,57.7354 105.539,59.7354 106.5,61.5C 106.5,62.1667 106.5,62.8333 106.5,63.5C 105.527,65.9479 105.194,68.6146 105.5,71.5C 105.167,71.5 104.833,71.5 104.5,71.5C 104.5,66.5 104.5,61.5 104.5,56.5C 103.167,56.5 101.833,56.5 100.5,56.5 Z"/></g>
<g><path style="opacity:1" fill="#4c2612" d="M 74.5,56.5 C 75.9187,55.5489 77.5853,55.2155 79.5,55.5C 79.2053,57.7354 79.5386,59.7354 80.5,61.5C 80.1667,62.1667 79.8333,62.8333 79.5,63.5C 79.5,66.1667 79.5,68.8333 79.5,71.5C 79.1667,71.5 78.8333,71.5 78.5,71.5C 78.5,66.5 78.5,61.5 78.5,56.5C 77.1667,56.5 75.8333,56.5 74.5,56.5 Z"/></g>
<g><path style="opacity:1" fill="#c36928" d="M 45.5,63.5 C 46.4872,68.3054 46.8205,73.3054 46.5,78.5C 48.8333,78.5 51.1667,78.5 53.5,78.5C 51.0521,79.4731 48.3854,79.8064 45.5,79.5C 45.5,77.5 45.5,75.5 45.5,73.5C 45.5,72.8333 45.5,72.1667 45.5,71.5C 45.5,68.8333 45.5,66.1667 45.5,63.5 Z"/></g>
<g><path style="opacity:1" fill="#ed7a23" d="M 100.5,56.5 C 101.833,56.5 103.167,56.5 104.5,56.5C 104.5,61.5 104.5,66.5 104.5,71.5C 106.948,72.4731 109.615,72.8064 112.5,72.5C 112.5,69.1667 112.5,65.8333 112.5,62.5C 110.585,62.7845 108.919,62.4511 107.5,61.5C 110.834,54.6143 115.001,53.9476 120,59.5C 120.667,64.8333 120.667,70.1667 120,75.5C 119.5,77.3333 118.333,78.5 116.5,79C 110.833,79.6667 105.167,79.6667 99.5,79C 98.2986,78.0975 97.4652,76.9308 97,75.5C 96.3333,69.8333 96.3333,64.1667 97,58.5C 97.8159,57.1772 98.9826,56.5106 100.5,56.5 Z"/></g>
<g><path style="opacity:1" fill="#89491e" d="M 106.5,61.5 C 106.833,61.5 107.167,61.5 107.5,61.5C 108.919,62.4511 110.585,62.7845 112.5,62.5C 112.5,65.8333 112.5,69.1667 112.5,72.5C 109.615,72.8064 106.948,72.4731 104.5,71.5C 104.833,71.5 105.167,71.5 105.5,71.5C 107.5,71.5 109.5,71.5 111.5,71.5C 111.5,68.8333 111.5,66.1667 111.5,63.5C 109.833,63.5 108.167,63.5 106.5,63.5C 106.5,62.8333 106.5,62.1667 106.5,61.5 Z"/></g>
<g><path style="opacity:1" fill="#010200" d="M 106.5,63.5 C 108.167,63.5 109.833,63.5 111.5,63.5C 111.5,66.1667 111.5,68.8333 111.5,71.5C 109.5,71.5 107.5,71.5 105.5,71.5C 105.194,68.6146 105.527,65.9479 106.5,63.5 Z"/></g>
<g><path style="opacity:1" fill="#ec7a24" d="M 63.5,55.5 C 65.1667,55.5 66.8333,55.5 68.5,55.5C 68.5,58.1667 68.5,60.8333 68.5,63.5C 67.1667,63.5 65.8333,63.5 64.5,63.5C 64.5,68.8333 64.5,74.1667 64.5,79.5C 61.8333,79.5 59.1667,79.5 56.5,79.5C 56.3339,73.8236 56.5006,68.1569 57,62.5C 59.3722,60.2968 61.5389,57.9635 63.5,55.5 Z"/></g>
<g><path style="opacity:1" fill="#eb7923" d="M 79.5,84.5 C 81.6074,83.5318 83.9407,83.1984 86.5,83.5C 86.7678,81.901 86.4345,80.5676 85.5,79.5C 81.4862,79.6655 77.4862,79.4988 73.5,79C 72.6667,78.1667 71.8333,77.3333 71,76.5C 70.3333,70.5 70.3333,64.5 71,58.5C 71.8159,57.1772 72.9826,56.5106 74.5,56.5C 75.8333,56.5 77.1667,56.5 78.5,56.5C 78.5,61.5 78.5,66.5 78.5,71.5C 80.9479,72.4731 83.6146,72.8064 86.5,72.5C 86.81,69.2869 86.4767,66.2869 85.5,63.5C 83.5,63.5 81.5,63.5 79.5,63.5C 79.8333,62.8333 80.1667,62.1667 80.5,61.5C 82.5,60.024 84.1666,58.1906 85.5,56C 89.2601,54.8238 92.0934,55.9904 94,59.5C 94.6667,68.5 94.6667,77.5 94,86.5C 91.9473,90.2916 88.7806,91.4582 84.5,90C 82.6266,88.2962 80.9599,86.4628 79.5,84.5 Z"/></g>
<g><path style="opacity:1" fill="#85451b" d="M 85.5,63.5 C 86.4767,66.2869 86.81,69.2869 86.5,72.5C 83.6146,72.8064 80.9479,72.4731 78.5,71.5C 78.8333,71.5 79.1667,71.5 79.5,71.5C 81.5,71.5 83.5,71.5 85.5,71.5C 85.5,68.8333 85.5,66.1667 85.5,63.5 Z"/></g>
<g><path style="opacity:1" fill="#010201" d="M 79.5,63.5 C 81.5,63.5 83.5,63.5 85.5,63.5C 85.5,66.1667 85.5,68.8333 85.5,71.5C 83.5,71.5 81.5,71.5 79.5,71.5C 79.5,68.8333 79.5,66.1667 79.5,63.5 Z"/></g>
<g><path style="opacity:1" fill="#ee7b23" d="M 53.5,78.5 C 51.1667,78.5 48.8333,78.5 46.5,78.5C 46.8205,73.3054 46.4872,68.3054 45.5,63.5C 43.1667,63.5 40.8333,63.5 38.5,63.5C 38.5,66.1667 38.5,68.8333 38.5,71.5C 40.5,72.1667 42.5,72.8333 44.5,73.5C 41.283,80.0954 36.783,81.0954 31,76.5C 25.9081,57.2565 32.7414,50.7565 51.5,57C 52,57.5 52.5,58 53,58.5C 53.4996,65.1583 53.6663,71.825 53.5,78.5 Z"/></g>
<g><path style="opacity:1" fill="#6a3718" d="M 38.5,71.5 C 40.8333,71.5 43.1667,71.5 45.5,71.5C 45.5,72.1667 45.5,72.8333 45.5,73.5C 45.1667,73.5 44.8333,73.5 44.5,73.5C 42.5,72.8333 40.5,72.1667 38.5,71.5 Z"/></g>
<g><path style="opacity:1" fill="#060301" d="M 45.5,63.5 C 45.5,66.1667 45.5,68.8333 45.5,71.5C 43.1667,71.5 40.8333,71.5 38.5,71.5C 38.5,68.8333 38.5,66.1667 38.5,63.5C 40.8333,63.5 43.1667,63.5 45.5,63.5 Z"/></g>
<g><path style="opacity:1" fill="#ef7b23" d="M 27.5,56.5 C 27.5,58.8333 27.5,61.1667 27.5,63.5C 23.5,63.5 19.5,63.5 15.5,63.5C 14.5233,66.2869 14.19,69.2869 14.5,72.5C 18.9707,71.9106 22.9707,72.5772 26.5,74.5C 25.8466,75.8068 25.1799,77.1401 24.5,78.5C 19.533,79.6623 14.533,79.8289 9.5,79C 8.66667,78.1667 7.83333,77.3333 7,76.5C 6.33333,70.5 6.33333,64.5 7,58.5C 7.38258,57.944 7.88258,57.6107 8.5,57.5C 14.7748,56.582 21.1082,56.2487 27.5,56.5 Z"/></g>
<g><path style="opacity:1" fill="#9a5829" d="M 27.5,56.5 C 21.1082,56.2487 14.7748,56.582 8.5,57.5C 8.61071,56.8826 8.94404,56.3826 9.5,56C 15.6812,55.1808 21.6812,55.3475 27.5,56.5 Z"/></g>
<g><path style="opacity:1" fill="#f7e0c4" d="M 128.5,41.5 C 128.833,41.5 129.167,41.5 129.5,41.5C 129.5,76.8333 129.5,112.167 129.5,147.5C 86.1667,147.5 42.8333,147.5 -0.5,147.5C -0.5,147.167 -0.5,146.833 -0.5,146.5C -0.166667,146.5 0.166667,146.5 0.5,146.5C 43.1667,146.5 85.8333,146.5 128.5,146.5C 128.5,111.833 128.5,77.1667 128.5,42.5C 128.5,42.1667 128.5,41.8333 128.5,41.5 Z"/></g>
</svg>
